<svg width="820" height="1080" viewBox="0 0 820 1080" fill="none" xmlns="http://www.w3.org/2000/svg">
  <rect width="820" height="1080" rx="16" fill="#294569"/>
  <rect x="86" y="86" width="648" height="908" rx="12" fill="#FCFBF7"/>
  <rect x="118" y="118" width="584" height="844" rx="8" stroke="#D4C8B7" stroke-width="3"/>
  <text x="410" y="226" text-anchor="middle" font-family="Georgia, serif" font-size="38" fill="#1F3047">CERTIFICATE</text>
  <text x="410" y="278" text-anchor="middle" font-family="Georgia, serif" font-size="22" fill="#7A6F61">DELE A2 Result</text>
  <rect x="196" y="334" width="428" height="16" rx="8" fill="#DED5C7"/>
  <rect x="164" y="382" width="492" height="12" rx="6" fill="#E8E0D3"/>
  <rect x="164" y="414" width="492" height="12" rx="6" fill="#E8E0D3"/>
  <rect x="164" y="446" width="492" height="12" rx="6" fill="#E8E0D3"/>
  <rect x="164" y="478" width="492" height="12" rx="6" fill="#E8E0D3"/>
  <rect x="244" y="582" width="332" height="72" rx="10" fill="#F2ECE2"/>
  <text x="410" y="625" text-anchor="middle" font-family="Georgia, serif" font-size="20" fill="#5C5449">APTO</text>
  <rect x="194" y="782" width="190" height="4" rx="2" fill="#B9AF9F"/>
  <rect x="434" y="782" width="190" height="4" rx="2" fill="#B9AF9F"/>
  <text x="289" y="818" text-anchor="middle" font-family="Arial, sans-serif" font-size="15" fill="#807769">Candidate</text>
  <text x="529" y="818" text-anchor="middle" font-family="Arial, sans-serif" font-size="15" fill="#807769">Examiner</text>
</svg>
